<svg xmlns="http://www.w3.org/2000/svg" viewBox="0 0 1165.57 1038.26"><defs><style>.cls-1{fill:#ccc;}.cls-2{fill:#0f2449;}.cls-3{fill:#f2f2f2;}.cls-4{fill:#3f3d56;}.cls-5{fill:#2149a3;}.cls-15,.cls-6{isolation:isolate;}.cls-6{opacity:0.1;}.cls-7{fill:#badeff;}.cls-8{fill:#fff;}.cls-9{fill:#ffb8b8;}.cls-10{fill:#ffb6b6;}.cls-11{fill:#e6e6e6;}.cls-12,.cls-15{fill:#f0f0f0;}.cls-13{fill:none;}.cls-14{fill:#e4e4e4;}.cls-15{opacity:0.3;}</style></defs><g id="Warstwa_2" data-name="Warstwa 2"><g id="Warstwa_1-2" data-name="Warstwa 1"><path d="M596.57,363l-30.72,51.82a1.33,1.33,0,0,1-2.35-1.23L589.43,357Z"/><path class="cls-1" d="M601.87,347.43a6.81,6.81,0,0,0-1.7,5.52,8.63,8.63,0,0,0,.19,1c.42,1.57,1.33,3.05,1.5,4.64a5,5,0,0,1,0,1.09,6.09,6.09,0,0,1-2.48,4.1,17.19,17.19,0,0,1-5.46,2.34l-.37-1.41-5.84-6a13.44,13.44,0,0,1-2.27-2.82,4,4,0,0,1-.36-3.34c.51-1.14,1.78-1.66,2.94-2.1l2.39-.9,2.81-1.05,1.19-.44c1.12-.43,2.26-.83,3.43-1.16a29.85,29.85,0,0,1,7-1.09A6.31,6.31,0,0,0,601.87,347.43Z"/><path class="cls-2" d="M601.87,347.43a6.81,6.81,0,0,0-1.7,5.52,8.63,8.63,0,0,0,.19,1c.42,1.57,1.33,3.05,1.5,4.64a5,5,0,0,1,0,1.09c-4.14-2.19-8.12-4.87-10.69-8.85a12.23,12.23,0,0,1-.76-1.32l2.81-1.05,1.19-.44c1.12-.43,2.26-.83,3.43-1.16a29.85,29.85,0,0,1,7-1.09A6.31,6.31,0,0,0,601.87,347.43Z"/><path class="cls-3" d="M343.4,605.72c0,129.31-76.87,174.46-171.7,174.46S0,735,0,605.72,171.7,311.91,171.7,311.91,343.4,476.41,343.4,605.72Z"/><polygon points="165.45 760.4 167.2 652.18 240.39 518.3 167.48 635.21 168.27 586.54 218.71 489.68 168.48 573.67 168.48 573.67 169.9 486.15 223.91 409.03 170.13 472.39 171.01 311.91 165.43 524.35 165.89 515.59 110.98 431.54 165.01 532.41 159.89 630.15 159.74 627.56 96.44 539.11 159.55 636.73 158.91 648.95 158.79 649.13 158.85 650.14 145.87 898.12 163.21 898.12 165.29 770.03 228.25 672.65 165.45 760.4"/><path class="cls-4" d="M1114.71,914.26c0,44.74-230.13,124-514,124s-514-79.26-514-124,230.12-38,514-38S1114.71,869.53,1114.71,914.26Z"/><path class="cls-2" d="M1114.71,914.26c0,44.74-230.13,124-514,124s-514-79.26-514-124,230.12-38,514-38S1114.71,869.53,1114.71,914.26Z"/><ellipse class="cls-5" cx="600.71" cy="914.26" rx="514" ry="81"/><ellipse class="cls-6" cx="444" cy="908.4" rx="122" ry="25.5"/><path class="cls-7" d="M1053.4,827.75c0,59.81-35.55,80.68-79.41,80.68-1,0-2,0-3,0-2,0-4-.14-6-.29-39.58-2.78-70.33-24.74-70.33-80.36,0-57.57,73.62-130.25,79.08-135.57h0c.2-.2.31-.29.31-.29S1053.4,768,1053.4,827.75Z"/><path d="M971.1,899.29l29-40.58-29.11,45L971,908.4c-2,0-4-.14-6-.29l3.13-59.82,0-.46.05-.09.3-5.65L939.19,797l29.27,40.91.08,1.19,2.36-45.2-25-46.65,25.3,38.71,2.46-93.73v0l-.41,73.92,24.87-29.3-25,35.67-.65,40.47,23.22-38.84-23.32,44.79-.36,22.51,33.71-54.06-33.84,61.9Z"/><path class="cls-7" d="M227.4,908.5c0,28.93-17.19,39-38.41,39h-1.46c-1,0-2-.07-2.92-.14-19.15-1.35-34-12-34-38.87,0-27.85,35.61-63,38.25-65.57h0l.15-.15S227.4,879.58,227.4,908.5Z"/><path d="M187.6,943.1l14-19.62-14.08,21.77,0,2.26c-1,0-2-.07-2.92-.14l1.51-28.93v-.23l0,0,.15-2.73L172.16,893.6l14.16,19.79,0,.58,1.14-21.87-12.09-22.56,12.24,18.72,1.19-45.33v0l-.2,35.75,12-14.17-12.08,17.25-.31,19.57,11.23-18.78-11.28,21.66-.18,10.89L204.36,889,188,918.89Z"/><path class="cls-7" d="M894.4,927.5c0,28.93-17.19,39-38.41,39h-1.46c-1,0-2-.07-2.92-.14-19.15-1.35-34-12-34-38.87,0-27.85,35.61-63,38.25-65.57h0l.15-.15S894.4,898.58,894.4,927.5Z"/><path d="M854.6,962.1l14-19.62-14.08,21.77,0,2.26c-1,0-2-.07-2.92-.14l1.51-28.93v-.23l0,0,.15-2.73L839.16,912.6l14.16,19.79,0,.58,1.14-21.87-12.09-22.56,12.24,18.72,1.19-45.33v0l-.2,35.75,12-14.17-12.08,17.25-.31,19.57,11.23-18.78-11.28,21.66-.18,10.89L871.36,908,855,937.89Z"/><path class="cls-2" d="M625.72,501C639.24,487.79,644,466,636.27,452.41s-24.91-14-38.44-.79S565.3,500.5,573,514.13,612.19,514.18,625.72,501ZM579,508.14c-2.88-1.39-3.67-5.74-1.75-9.72s5.8-6.09,8.68-4.7,3.66,5.73,1.75,9.71-5.8,6.09-8.68,4.71Z"/><path class="cls-5" d="M609,490.94l-3.9-3.57a16.2,16.2,0,0,1-4.3-5.26,16,16,0,0,1-.82-9,21.49,21.49,0,0,1,5.82-11.55l-.21,3a23.23,23.23,0,0,1,5.46-4.67c1.93-1,4.05-.92,4.89.85,1,2,0,5.66,1.35,7.29,2.25,2.82,8.11-3.26,10.58-.76,1.44,1.45.76,4.91,0,7.82a43.33,43.33,0,0,1-3.67,10.36c-3,5.42-8.51,9-12.22,7.54A10,10,0,0,1,609,490.94Z"/><path class="cls-8" d="M597.47,491.67c-.69-2.32.72-5.35,2-7.89l.68-.7a12.53,12.53,0,0,1,4.44-1.28,3.19,3.19,0,0,1,3.28,2.24c.39,1.36.07,3.31,1,4.11,1.82,1.54,5.49-3.23,7.23-1.57,1,.93.27,3.34-1,4.52a7.46,7.46,0,0,1-4.2,1.71l-6.71,1.11a11.4,11.4,0,0,1-4,.2A3.5,3.5,0,0,1,597.47,491.67Z"/><path class="cls-7" d="M590.09,493.4c.47-3.44,3.1-9,5.44-13.69l.92-1.44a23.39,23.39,0,0,1,4.48-4.12c1.27-.69,2.16-.18,1.84,2.1-.29,2-1.47,5.32-1,6.17.89,1.64,6.31-7.76,7.07-5.87.42,1.05-1.31,5.26-3,7.75a17.51,17.51,0,0,1-4.46,4.7l-6.4,4.9a10.7,10.7,0,0,1-3.59,2.16C590.44,496.24,589.8,495.48,590.09,493.4Z"/><path class="cls-9" d="M590.83,505.88a10.76,10.76,0,0,0-12.71-8.37,10.2,10.2,0,0,0-1.81.54l-25-28.93-5.39,19.13,24.58,24.54a10.82,10.82,0,0,0,20.35-6.91Z"/><path class="cls-5" d="M507.79,395.72,501.16,407s17.5,8.67,17.84,15.52,1.59,5.1,4.2,7,5.69,6.75,5.78,12.1,41.49,46.8,41.49,46.8L559.2,504a60.29,60.29,0,0,0-12.15-8.77c-6.7-3.51-25.3-10-26.65-13.65s-6.79-6.25-12-10,6-6.95-2.72-13.21-55.77-55.56-64.2-60.33S433,378.68,433,378.68l6.26-8.67Z"/><polygon class="cls-10" points="499.85 883.96 517.6 883.96 526.04 815.52 499.85 815.52 499.85 883.96"/><path class="cls-2" d="M490.49,914.71h12.72l2.27-12,5.82,12h33.75a7.59,7.59,0,0,0,4.32-13.83l-27-18.62V870.12l-28.35,1.69Z"/><polygon class="cls-10" points="362.27 848.75 377.54 857.81 419.71 803.24 397.19 789.88 362.27 848.75"/><path class="cls-2" d="M338.53,870.42l11,6.49,8.08-9.17L356.43,881l29,17.22a7.59,7.59,0,0,0,10.76-9.7L382.54,858.8l6.2-10.45-25.25-13Z"/><polygon class="cls-10" points="501.77 446.32 516.4 501.29 434.47 502.37 445.25 449.55 501.77 446.32"/><path class="cls-2" d="M516.71,500.6l17.4,56.74,7.71,151.76-20,144.9h-22.1L490.7,711.46l-22.27-97.52,13,102-68.29,99.84H379.62l61.69-110L405.4,591.55s3.6-56.48,26.38-86.49l5.54-16Z"/><path class="cls-5" d="M517.85,395.69a15.25,15.25,0,0,0-.22-1.51A45.34,45.34,0,0,0,466.28,356a46.3,46.3,0,0,0-28.56,16v0c-.38.44-.73.91-1.08,1.39-.64.79-1.22,1.64-1.79,2.49a45.42,45.42,0,0,0-7.53,26s4.28,22.79,5.18,28.84c.61,3.9,1.08,7.74,1.43,11.48.22,1.88.38,3.74.52,5.55v0c.71,9,.94,17,1.15,23.25.1,3.38,2.45,13,2.59,13.12a5.52,5.52,0,0,0,.47.32,8.4,8.4,0,0,0,7.91.29l10.58-4.94h0a41,41,0,0,1,22.52-3.48c12.58,1.64,30.9,3.87,31.73,3.2,1-.85,5.76-43.57,7-57,.16-1.93.31-3.93.38-6.07v0A139.92,139.92,0,0,0,517.85,395.69Z"/><path class="cls-9" d="M578.7,403.37a10.2,10.2,0,0,1-12.92,6.41,9.6,9.6,0,0,1-1.64-.72l-26.86,24.32-2.87-18.61,26-20.24a10.25,10.25,0,0,1,18.34,8.84Z"/><path class="cls-5" d="M478.74,356.2s26.43,4.94,11.39,56.24l5.81,25.43,27.25-15.67,1.65-6.63,23.86-16.75L560,419.16l-13.72,13.11-4,8.18-7,2.33-21.79,20.83-9.14,5.58s-11.63,7.2-22,3.3a28,28,0,0,1-7.65-4.33c-4.51-3.59-8.52-9.09-11-17.41-9.3-30.84-12.8-52.41-12.8-52.41Z"/><path class="cls-11" d="M593.62,442.56a7.12,7.12,0,0,1-3.35-.55C591.38,442.25,592.49,442.43,593.62,442.56Z"/><circle class="cls-10" cx="466.85" cy="313.92" r="34.64" transform="translate(-32.53 572.98) rotate(-61.34)"/><path d="M445.72,285.66v0a17.71,17.71,0,0,1-.57,4.46c-.06.26-.14.52-.22.78h0A17.66,17.66,0,0,1,434,302.28a12.08,12.08,0,0,1-1.16.38,15.4,15.4,0,0,1-2.5.51,16.27,16.27,0,0,1-2.3.16c-.61,0-1.21,0-1.81-.09a17,17,0,0,1-4.1-.93,6.13,6.13,0,0,1-.6-.22l-.3-.12a17.67,17.67,0,0,1-9.47-23.11c.11-.27.23-.54.36-.8v0a17.4,17.4,0,0,1,3.47-4.86c3.19-3.18,4.59-11.14,9.44-11.14l.69,0c3.25.11,9.25,7.12,11.81,8.77a17.69,17.69,0,0,1,7.69,10.87A17.47,17.47,0,0,1,445.72,285.66Z"/><path d="M424.16,279.52c-2.74,3.19-7,4.43-10.9,6.09a45.88,45.88,0,0,0-26.64,33.5c-1.07,6-.93,12.15-2.62,18s-5.84,11.53-11.81,12.54c-4,.69-8.09-.87-11.89-2.41L354,344.68q3.27-8.21,6.53-16.41a83.1,83.1,0,0,1-12.11,14.17L326,333.38c18.46.07,15.31-17.85,19.44-35.83,2.27-9.88,21.6-16.57,25.39-26A28.75,28.75,0,0,1,423,269C426.74,270.47,426.85,276.37,424.16,279.52Z"/><path d="M498.2,279.27c-5.42-10-20.38-11.19-28.8-11.87-4.47-.37-9.6.11-16.46.93-11.11,1.35-20.9,9.18-25.87,19.21s-5.42,21.94-2.56,32.76c1.92,7.28,5.46,14.38,11.33,19.1s33.46,15.88,35.76,6.27c-2.87,12.54,2.9,10.58,11.45,20.19,4.43-13.3,6.51-38.37,10.93-51.67.67-2,1.34-4,2-6,1.41-4.22,2.82-8.45,3.83-12.78C500.23,293.63,501.66,285.64,498.2,279.27Z"/><path class="cls-2" d="M622.87,173.08c37.1-23.94,88.2-14.64,124.35,10.73a197,197,0,0,1,32.3,28.82c5.65,6.19,11,12.69,16.11,19.41,1.26,1.65,2.52,3.32,3.75,5,.84,1.14,1.68,2.28,2.5,3.43,10.38,14.43,19.9,29.61,29.21,44.64,23.25,37.54,47.11,76.2,82.53,102.55,7.3,5.43,17.49,10.32,25,5.13,6.49-4.5,6.77-14,5.29-21.72-5.49-28.74-25.29-52.56-46.33-72.89s-44.33-39-60.23-63.53-23.16-57.37-9.24-83.1c12-22.17,37.82-34.61,63-35.19s49.68,9.22,71,22.68,40.07,30.53,59.63,46.43c11.8,9.59,28.26,19.1,41.12,11,10.85-6.86,11.7-23.33,5.23-34.43s-18-18.06-29.09-24.56q-51.56-30.3-103.12-60.57c-7.29-4.29-20.1-9-29.1-22C903.53,50.2,893.32,35.5,899,20.74,904.9,5.15,924,1.38,927,.79c15.74-3.11,29,3.83,35.19,6.31,41.92,16.83,140.61,127,166.91,145.78,16.9,12.09,34.66,27.4,36.37,48.11,2.13,25.78-23.53,47.18-49.28,49.68s-50.7-8.68-73.71-20.52S996,205.26,970.15,203.62s-54.79,12.16-60.91,37.3c-5.33,21.87,8.2,44.44,25.83,58.44,13.8,11,30,18.26,45.64,26.46,4.34,2.27,8.64,4.62,12.83,7.14a180.31,180.31,0,0,1,29.94,22.5,184.2,184.2,0,0,1,25.77,29.64,179.06,179.06,0,0,1,15.62,27.17c.67,1.45,1.32,2.93,2,4.42s1.17,2.87,1.72,4.32c7.18,18.92,10,40.11.81,57.77s-29,28-48.75,29.48a89.86,89.86,0,0,1-33.79-4.47,135.84,135.84,0,0,1-23.13-9.94c-34.26-18.39-61.39-47.54-86.15-77.52s-48.09-61.53-77.49-87S733.82,284.66,694.93,285s-79,24-90,61.26c-16.1-27.73-27-59.35-25.55-91.39S595.93,190.47,622.87,173.08Z"/><circle class="cls-5" cx="773.72" cy="272.44" r="4.27"/><circle class="cls-7" cx="612.73" cy="276.22" r="6.6"/><circle class="cls-7" cx="1090.09" cy="221.94" r="2.44"/><circle class="cls-7" cx="1040.72" cy="90.79" r="2.44"/><path class="cls-7" d="M977.93,331.51a25.86,25.86,0,0,1,2.78-5.69c4.34,2.27,8.64,4.62,12.83,7.14a180.31,180.31,0,0,1,29.94,22.5,26,26,0,0,1-45.55-23.95Z"/><circle class="cls-12" cx="666.7" cy="249.59" r="2.5"/><circle class="cls-12" cx="972.48" cy="64.94" r="2.5"/><circle class="cls-12" cx="950.01" cy="20.48" r="2.5"/><circle class="cls-12" cx="1126.73" cy="186.19" r="2.5"/><circle class="cls-12" cx="995.63" cy="189.78" r="2.5"/><circle class="cls-12" cx="926.07" cy="427.83" r="2.5"/><circle class="cls-12" cx="847.64" cy="193.71" r="2.5"/><circle class="cls-12" cx="844.13" cy="146.52" r="2.5"/><path class="cls-13" d="M1001,407.05c-3.7-.15-7.3-.17-10.77-.05-21.35.74-35.58,6.85-39,16.79s3.93,23.54,20.24,37.35c1.61,1.37,3.3,2.72,5,4.07A80.09,80.09,0,0,1,1001,407.05Z"/><path class="cls-5" d="M981,438.45a79.54,79.54,0,0,1,20.09-31.4q1.8-1.73,3.71-3.33a80,80,0,0,1,44.5-18.62,179.06,179.06,0,0,1,15.62,27.17c.67,1.45,1.32,2.93,2,4.42s1.17,2.87,1.72,4.32c7.18,18.92,10,40.11.81,57.77s-29,28-48.75,29.48a89.86,89.86,0,0,1-33.79-4.47,79.82,79.82,0,0,1-10.14-34.06c-.09-1.5-.14-3-.16-4.53A79.87,79.87,0,0,1,981,438.45Z"/><path class="cls-14" d="M947.92,422.63c4-11.55,19-18.35,42.23-19.15,4.65-.16,9.76,1.77,14.6.24,23.44-7.44,44.71-2.58,62.08,13,.59,1.42,1.17,2.87,1.72,4.32l-.69-.24c-23.46-8.15-46.75-12.9-66.82-13.72-3.7-.15-8.13-2.3-10.77-.05-21.2,18.05-35.55,10.49-39,16.79-5.07,9.2,3.94,23.54,20.24,37.35q2.43,2.06,5,4.06c0,1.52.07,3,.16,4.53q-3.95-2.91-7.47-5.9C951.47,448.81,943.91,434.18,947.92,422.63Z"/><circle class="cls-12" cx="1035.79" cy="501.95" r="2.5"/><circle class="cls-12" cx="991.63" cy="469.85" r="2.5"/><circle class="cls-12" cx="1025.42" cy="454.85" r="24.27"/><path class="cls-15" d="M644.1,186.55c5.67.26,17.4,3.08,30.12,6.72s26.49,8.1,40.1,12.5l71.46,23.08q4.92,1.58,9.85,3.19c1.26,1.65,2.52,3.32,3.75,5q-4.35-1.53-8.7-3c-12.38-4-23.12-6.67-35.13-10.33-18.49-5.63-38-13-56.91-19.9S658,189.55,644.1,186.55Z"/><path class="cls-15" d="M1067.66,137.69l53.58,88.95-50.56-90.72a1.85,1.85,0,1,0-3,1.77Z"/><circle class="cls-12" cx="1041.53" cy="397.69" r="2.5"/><circle class="cls-5" cx="903.85" cy="156.19" r="21.84" transform="translate(631.55 1032.08) rotate(-82.53)"/><path class="cls-8" d="M903.7,167.07c-22.26,0-39.69-4-39.69-9.19,0-3.08,6.18-5.84,17-7.55a.29.29,0,0,1,.34.24.29.29,0,0,1-.24.34h0c-10.15,1.62-16.45,4.29-16.45,7,0,4.66,17.91,8.6,39.1,8.6s39.11-3.93,39.11-8.59c0-2.69-6.35-5.37-16.56-7a.3.3,0,0,1-.25-.34.31.31,0,0,1,.34-.25h0c10.84,1.71,17.06,4.47,17.06,7.57C943.4,163,926,167.07,903.7,167.07Z"/><path class="cls-8" d="M905.29,163.54c-19.18,11.3-36.25,16.67-38.87,12.23-1.56-2.66,2.36-8.17,10.78-15.11a.29.29,0,0,1,.41,0,.3.3,0,0,1,0,.42h0c-7.92,6.55-12,12-10.64,14.36,2.37,4,19.79-1.68,38.06-12.44s31.7-23.23,29.34-27.24c-1.37-2.33-8.2-1.41-17.82,2.38a.3.3,0,0,1-.38-.17.29.29,0,0,1,.16-.38h0c10.21-4,17-4.79,18.54-2.12C937.45,139.92,924.47,152.25,905.29,163.54Z"/><path class="cls-8" d="M903.85,162.81c-21.46-10.84-39.45-7.32-39.7-9.19,0-3.09,6.18-5.84,17-7.56a.3.3,0,0,1,.09.59h0c-10.15,1.61-16.45,4.28-16.45,7,0,4.66,17.9,8.59,39.1,8.59S943,158.28,943,153.63c0-2.7-6.35-5.38-16.56-7a.3.3,0,0,1,.09-.59h0c10.84,1.72,17.06,4.48,17.06,7.58C943.55,158.78,923.72,172.84,903.85,162.81Z"/><path class="cls-8" d="M994.73,45l-1.6-2.83L991.54,45l-2.82,1.59,2.82,1.59c.54.94,1.07,1.88,1.6,2.82l1.59-2.82,2.83-1.59Z"/><path class="cls-8" d="M620.92,214.62l-1.59-2.83-1.59,2.83-2.82,1.59,2.82,1.59,1.59,2.82,1.59-2.82,2.83-1.59Z"/><path class="cls-8" d="M837.29,325.43c-.82-1.45-1.63-2.9-2.45-4.34l-2.44,4.34-4.34,2.44,4.34,2.44,2.45,4.34,2.44-4.34,4.35-2.44Z"/><path class="cls-8" d="M1136.5,221.67l-1.23-2.17-1.22,2.17-2.17,1.23,2.17,1.21,1.23,2.17,1.22-2.17,2.17-1.21Z"/></g></g></svg>