<svg width="160" height="60" viewBox="0 0 160 60" fill="none" xmlns="http://www.w3.org/2000/svg">
<path d="M21.4334 20.1049C22.7258 29.7005 29.9582 36.7675 37.895 36.4734C37.5142 36.5583 37.1265 36.6266 36.732 36.6783C28.3434 37.7568 20.4437 30.475 19.0876 20.403C17.7315 10.3309 23.4353 1.30006 31.8238 0.221579C32.2158 0.170596 32.6077 0.137915 32.9997 0.123535C25.2578 1.84911 20.141 10.5093 21.4334 20.1049Z" fill="black"/>
<path d="M4.72488 30.0162C4.72488 45.8012 17.1838 58.7323 33.0027 59.9118C32.2227 59.9706 31.4352 60 30.6402 60C13.718 60 0 46.5758 0 30.0162C0 13.4565 13.718 0.0323486 30.6402 0.0323486C31.4352 0.0323486 32.2227 0.0617523 33.0027 0.120579C17.1838 1.30005 4.72488 14.234 4.72488 30.0162Z" fill="black"/>
<path d="M17.0888 13.2723C12.5266 25.5836 19.0279 39.1833 31.6093 43.6472C34.7867 44.7781 38.162 45.2447 41.5267 45.0182C44.8915 44.7917 48.1739 43.877 51.1713 42.3305C44.9746 50.6143 33.7229 54.2811 23.3619 50.6054C10.7805 46.1405 4.27909 32.5418 8.84131 20.2295C10.9803 14.4556 15.1722 9.99072 20.3184 7.33765C18.9621 9.15007 17.8744 11.1489 17.0888 13.2723V13.2723Z" fill="#2149A3"/>
<path d="M41.9664 37.9107V36.9155L46.3239 36.2047V1.70596L41.9664 1.04222V0H55.8902V1.04222L51.5328 1.70596V36.7734H65.6937L69.575 26.3483H70.8488V37.9107H41.9664Z" fill="#2149A3"/>
<path d="M78.1252 36.6783C76.8148 35.541 76.1596 33.851 76.1596 31.6084V14.7851L72.8447 14.3115V13.3595H80.8962V31.5094C80.8962 33.1206 81.2277 34.3844 81.8908 35.3008C82.5538 36.2172 83.5801 36.6747 84.9695 36.6734C86.4204 36.6734 87.8173 36.1917 89.1604 35.2282C90.5343 34.233 91.7413 33.0254 92.7359 31.6506V14.7851L89.421 14.3115V13.3595H97.4725V36.4852L100.787 36.9587V37.9068H92.7359V33.3605C91.6631 34.8831 90.2633 36.146 88.6391 37.0567C87.0692 37.9348 85.2992 38.3918 83.5007 38.3833C81.2274 38.3839 79.4356 37.8156 78.1252 36.6783Z" fill="#2149A3"/>
<path d="M103.25 36.9626L106.565 36.4891V14.7851L103.25 14.3115V13.3595H111.301V18.4774C112.468 16.7715 113.841 15.4211 115.422 14.4262C116.947 13.4463 118.723 12.9278 120.536 12.933C122.81 12.933 124.602 13.5017 125.912 14.639C127.222 15.7763 127.878 17.4666 127.878 19.7098V36.4852L131.192 36.9587V37.9068H120.299V36.9587L123.141 36.4852V19.8089C123.141 18.1656 122.809 16.894 122.146 15.994C121.483 15.0939 120.457 14.6436 119.068 14.6429C117.615 14.6429 116.219 15.172 114.877 16.2303C113.489 17.3391 112.282 18.6584 111.301 20.1402V36.4891L114.143 36.9626V37.9107H103.25V36.9626Z" fill="#2149A3"/>
<path d="M136.165 36.7969C134.87 35.7394 134.222 34.1677 134.223 32.082C134.223 29.1132 135.471 27.0043 137.965 25.7552C140.46 24.5061 143.349 23.8822 146.632 23.8835H149.805V20.2344C149.805 18.5924 149.623 17.3211 149.26 16.4204C148.897 15.5197 148.336 14.8877 147.579 14.5242C146.822 14.1615 145.796 13.9798 144.501 13.9791C143.017 13.9791 141.911 14.2716 141.185 14.8566C140.459 15.4416 140.096 16.2234 140.096 17.2018C140.096 18.1169 140.538 18.7173 141.422 19.0029C141.422 19.7931 141.122 20.4883 140.523 21.0883C140.247 21.376 139.916 21.6042 139.55 21.759C139.183 21.9138 138.788 21.9919 138.39 21.9883C137.507 21.9883 136.796 21.7436 136.259 21.254C135.722 20.7644 135.454 20.0128 135.455 18.999C135.455 17.1688 136.369 15.6998 138.198 14.5919C140.027 13.484 142.317 12.931 145.066 12.933C151.381 12.933 154.538 15.6815 154.538 21.1785V34.7331C154.538 35.4279 154.688 35.957 154.988 36.3204C155.289 36.6838 155.723 36.8656 156.291 36.8656C156.826 36.8656 157.252 36.6838 157.569 36.3204C157.886 35.957 158.044 35.4593 158.043 34.8272H159.036C159.036 35.9345 158.681 36.8035 157.971 37.4342C157.261 38.065 156.274 38.3807 155.011 38.3813C153.558 38.3813 152.335 37.963 151.34 37.1263C150.346 36.2897 149.833 34.9864 149.801 33.2164C149.06 34.8097 147.844 36.1341 146.32 37.0077C144.747 37.9257 142.955 38.4001 141.134 38.3803C139.116 38.3829 137.459 37.8552 136.165 36.7969ZM146.371 35.541C147.271 35.0364 148.037 34.302 148.668 33.3379C149.3 32.3738 149.679 31.2127 149.805 29.8544V24.9287H146.632C144.042 24.9287 142.108 25.5052 140.83 26.6582C139.553 27.8112 138.913 29.4302 138.912 31.5153C138.912 33.2526 139.322 34.4847 140.143 35.2115C140.965 35.9384 142.164 36.3018 143.742 36.3018C144.597 36.3018 145.473 36.0482 146.371 35.541V35.541Z" fill="#2149A3"/>
<path d="M97.8929 42.452H102.694C106.9 42.452 109.881 45.3531 109.881 49.4592C109.881 53.5653 106.9 56.4861 102.694 56.4861H97.8929V42.452ZM102.694 55.7507C106.472 55.7507 109.146 53.1359 109.146 49.4592C109.146 45.7826 106.472 43.1844 102.694 43.1844H98.6278V55.7478L102.694 55.7507Z" fill="black"/>
<path d="M121.249 54.5458L121.759 55.0968C120.877 56.0576 119.044 56.7312 117.35 56.7312C114.532 56.7312 112.164 54.1987 112.164 51.175C112.164 48.0906 114.451 45.6846 117.35 45.6846C120.371 45.6846 122.372 48.0376 122.372 51.5476H112.919C113.083 53.9987 115.063 56.0008 117.35 56.0008C118.862 55.9959 120.371 55.5057 121.249 54.5458ZM112.92 50.8074H121.641C121.518 48.1719 119.845 46.415 117.354 46.415C114.982 46.415 113.081 48.3357 112.919 50.8123L112.92 50.8074Z" fill="black"/>
<path d="M124.251 55.1586L124.701 54.587C125.926 55.4645 127.375 55.9959 128.62 55.9959C130.213 55.9959 131.54 55.0968 131.54 54.035C131.54 52.8497 130.658 52.1143 128.477 51.4408C125.967 50.6642 124.966 49.7858 124.966 48.3759C124.966 46.9052 126.559 45.6797 128.457 45.6797C129.702 45.6797 131.091 46.1287 132.234 46.865L131.785 47.4367C130.764 46.8033 129.539 46.415 128.454 46.415C126.964 46.415 125.698 47.2729 125.698 48.2945C125.698 49.3573 126.596 50.0721 128.842 50.7868C131.291 51.5633 132.271 52.4624 132.271 53.9536C132.271 55.4645 130.597 56.7312 128.616 56.7312C127.108 56.7312 125.475 56.139 124.251 55.1586Z" fill="black"/>
<path d="M134.54 42.9835C134.54 42.8211 134.605 42.6654 134.719 42.5505C134.834 42.4356 134.99 42.371 135.152 42.3707C135.313 42.3747 135.467 42.4405 135.581 42.5546C135.695 42.6687 135.761 42.8222 135.764 42.9835C135.764 43.1459 135.699 43.3014 135.585 43.4162C135.47 43.531 135.314 43.5958 135.152 43.5963C135.071 43.5979 134.991 43.5831 134.916 43.5529C134.841 43.5227 134.773 43.4776 134.715 43.4204C134.658 43.3631 134.613 43.295 134.583 43.2199C134.553 43.1448 134.538 43.0644 134.54 42.9835V42.9835ZM134.785 45.9248H135.52V56.4861H134.785V45.9248Z" fill="black"/>
<path d="M147.545 45.9248V55.3625C147.545 58.0793 145.565 60 142.744 60C141.212 60 139.436 59.4117 138.477 58.5901L138.844 57.9371C139.763 58.7127 141.356 59.2646 142.682 59.2646C145.092 59.2646 146.806 57.6508 146.806 55.3625V52.9526C146.03 54.7497 144.336 55.7096 142.397 55.7096C139.887 55.7096 137.783 53.4222 137.783 50.6848C137.783 47.968 139.887 45.6846 142.397 45.6846C144.398 45.6846 146.052 46.6238 146.806 48.422V45.9297L147.545 45.9248ZM146.81 50.6848C146.81 48.1925 144.949 46.415 142.543 46.415C140.359 46.415 138.521 48.3759 138.521 50.6848C138.521 53.0134 140.359 54.9742 142.543 54.9742C144.953 54.9742 146.81 53.1977 146.81 50.6848V50.6848Z" fill="black"/>
<path d="M158.958 49.5613V56.4861H158.223V49.6632C158.223 47.7631 156.851 46.415 154.916 46.415C152.936 46.415 151.547 47.8043 151.547 49.7485V56.49H150.812V45.9248H151.547V47.7631C152.078 46.4964 153.364 45.6797 155.018 45.6797C157.324 45.6797 158.958 47.2935 158.958 49.5613Z" fill="black"/>
</svg>
