<svg width="323" height="60" viewBox="0 0 323 60" fill="none" xmlns="http://www.w3.org/2000/svg">
<g clip-path="url(#clip0_56_287)">
<path d="M90.5722 42.114H101.047V44.4902H87.651V15.3433H90.5722V42.114Z" fill="#2149A3"/>
<path d="M124.958 21.7229V44.4894H122.038V40.4869C121.393 41.8802 120.307 43.0231 118.948 43.7396C117.56 44.4892 116.002 44.8643 114.274 44.8648C111.547 44.8648 109.322 44.0239 107.597 42.3421C105.873 40.6603 105.011 38.2212 105.01 35.0246V21.7229H107.89V34.6909C107.89 37.1655 108.509 39.056 109.746 40.3621C110.984 41.6682 112.674 42.3213 114.817 42.3213C117.014 42.3213 118.767 41.6264 120.075 40.2364C121.384 38.8465 122.037 36.8035 122.037 34.1074V21.7229H124.958Z" fill="#2149A3"/>
<path d="M148.996 23.8285C150.72 25.5108 151.583 27.95 151.583 31.146V44.4893H148.704V31.4798C148.704 29.0062 148.085 27.116 146.847 25.8093C145.609 24.5026 143.919 23.8493 141.777 23.8493C139.579 23.8493 137.826 24.5443 136.518 25.9342C135.21 27.3241 134.556 29.3674 134.556 32.064V44.4893H131.635V21.7228H134.556V25.6004C135.25 24.2417 136.343 23.1282 137.69 22.4103C139.051 21.6745 140.594 21.3066 142.319 21.3066C145.046 21.3066 147.271 22.1473 148.996 23.8285Z" fill="#2149A3"/>
<path d="M158.114 26.9138C159.046 25.1494 160.34 23.7872 161.995 22.8273C163.651 21.8674 165.522 21.3882 167.608 21.3899C169.779 21.3899 171.65 21.8893 173.221 22.888C174.793 23.8868 175.926 25.1655 176.622 26.7241V21.7228H179.544V44.4894H176.622V39.444C175.9 41.0015 174.753 42.2874 173.18 43.3017C171.606 44.316 169.735 44.8231 167.566 44.8231C165.507 44.8231 163.65 44.3368 161.995 43.3641C160.34 42.3914 159.047 41.0154 158.114 39.2359C157.181 37.457 156.715 35.3999 156.716 33.0645C156.716 30.7291 157.182 28.6788 158.114 26.9138ZM175.495 28.2696C174.744 26.8797 173.722 25.8094 172.428 25.0586C171.129 24.3065 169.652 23.9176 168.151 23.9326C166.537 23.9326 165.09 24.2932 163.81 25.0145C162.531 25.7359 161.522 26.7851 160.785 28.1623C160.049 29.5405 159.68 31.1746 159.68 33.0645C159.68 34.9271 160.049 36.5604 160.787 37.9642C161.524 39.368 162.533 40.4383 163.812 41.1752C165.089 41.9115 166.536 42.2796 168.153 42.2796C169.652 42.2937 171.128 41.9048 172.425 41.1535C173.719 40.4039 174.741 39.3339 175.492 37.9434C176.243 36.5529 176.618 34.9405 176.619 33.1061C176.621 31.2717 176.247 29.6596 175.495 28.2696Z" fill="#2149A3"/>
<path d="M203.392 17.1985C205.715 18.3803 207.496 20.069 208.734 22.2646C209.973 24.4602 210.592 27.0456 210.592 30.0208C210.592 32.9954 209.973 35.5736 208.734 37.7553C207.496 39.937 205.715 41.6049 203.392 42.759C201.069 43.9137 198.322 44.4905 195.151 44.4894H186.095V15.4265H195.151C198.322 15.4265 201.069 16.0172 203.392 17.1985ZM203.745 38.3812C205.719 36.3936 206.707 33.6068 206.708 30.0208C206.708 26.407 205.713 23.5855 203.724 21.5564C201.735 19.5272 198.875 18.5124 195.144 18.5118H189.892V41.3649H195.151C198.907 41.3649 201.772 40.3703 203.745 38.3812Z" fill="black"/>
<path d="M236.34 34.4819H218.061C218.2 36.7341 218.972 38.4925 220.377 39.757C221.781 41.0215 223.485 41.6541 225.489 41.6546C227.13 41.6546 228.501 41.2723 229.6 40.5077C230.683 39.7632 231.496 38.688 231.916 37.4432H236.006C235.395 39.6388 234.171 41.4246 232.333 42.8007C230.496 44.1768 228.214 44.8648 225.489 44.8648C223.319 44.8648 221.378 44.3784 219.668 43.4058C217.957 42.4331 216.615 41.0501 215.64 39.2568C214.666 37.464 214.18 35.3861 214.18 33.0229C214.181 30.6598 214.653 28.5887 215.596 26.8099C216.54 25.031 217.869 23.6618 219.582 22.7025C221.295 21.7431 223.263 21.2637 225.487 21.2643C227.657 21.2643 229.576 21.7359 231.246 22.6792C232.877 23.5864 234.216 24.9385 235.106 26.5776C236.01 28.2322 236.462 30.1018 236.462 32.1865C236.461 32.9532 236.42 33.7194 236.34 34.4819V34.4819ZM231.582 27.6646C230.959 26.6382 230.054 25.8129 228.974 25.2876C227.874 24.746 226.657 24.475 225.322 24.4744C223.403 24.4744 221.769 25.0862 220.419 26.3096C219.07 27.5331 218.298 29.2288 218.103 31.3966H232.542C232.542 29.9518 232.222 28.7078 231.582 27.6646Z" fill="black"/>
<path d="M244.853 43.9683C243.46 43.3707 242.361 42.5368 241.556 41.4665C240.75 40.3982 240.286 39.1121 240.223 37.7761H244.144C244.255 38.9163 244.79 39.8476 245.751 40.5701C246.711 41.2925 247.97 41.6532 249.527 41.6521C250.971 41.6521 252.112 41.3322 252.949 40.6924C253.786 40.0527 254.203 39.2467 254.198 38.2746C254.198 37.2759 253.754 36.5321 252.866 36.0432C251.977 35.5544 250.6 35.075 248.734 34.605C247.037 34.1611 245.652 33.7092 244.582 33.2492C243.516 32.7958 242.572 32.0974 241.827 31.2109C241.061 30.3076 240.679 29.1191 240.679 27.6454C240.675 26.4913 241.04 25.366 241.722 24.4344C242.418 23.4623 243.406 22.691 244.685 22.1206C245.965 21.5502 247.425 21.2653 249.067 21.2659C251.599 21.2659 253.643 21.904 255.202 23.1801C256.761 24.4563 257.596 26.2077 257.706 28.4344H253.909C253.824 27.2392 253.344 26.2802 252.468 25.5572C251.593 24.8342 250.417 24.4735 248.942 24.4752C247.579 24.4752 246.494 24.7673 245.687 25.3516C244.881 25.9359 244.477 26.6999 244.477 27.6437C244.477 28.3945 244.72 29.0129 245.207 29.4989C245.731 30.0092 246.355 30.4059 247.04 30.6641C247.777 30.9565 248.8 31.2833 250.107 31.6446C251.749 32.0885 253.085 32.5262 254.114 32.9579C255.138 33.3858 256.046 34.0501 256.763 34.8963C257.5 35.7586 257.883 36.8847 257.911 38.2746C257.924 39.4815 257.56 40.6624 256.868 41.6521C256.172 42.6508 255.191 43.4359 253.926 44.0074C252.661 44.579 251.207 44.8639 249.565 44.8622C247.814 44.8639 246.244 44.5659 244.853 43.9683Z" fill="black"/>
<path d="M263.385 17.1777C263.021 16.8162 262.773 16.3547 262.672 15.8518C262.571 15.349 262.622 14.8275 262.818 14.3537C263.015 13.8798 263.348 13.4751 263.775 13.1908C264.202 12.9066 264.705 12.7557 265.218 12.7574C265.549 12.7521 265.878 12.816 266.184 12.9449C266.489 13.0739 266.764 13.2652 266.991 13.5065C267.46 14.0023 267.722 14.6588 267.722 15.3412C267.722 16.0236 267.46 16.6801 266.991 17.176C266.764 17.4173 266.489 17.6086 266.184 17.7375C265.878 17.8665 265.549 17.9304 265.218 17.9251C264.878 17.9318 264.54 17.8689 264.224 17.7404C263.909 17.6119 263.624 17.4204 263.385 17.1777V17.1777ZM267.05 21.6396V44.4894H263.253V21.6396H267.05Z" fill="black"/>
<path d="M288.148 22.5551C289.636 23.4174 290.742 24.5016 291.466 25.8077V21.6396H295.305V44.9904C295.305 47.0756 294.86 48.931 293.972 50.5568C293.094 52.1702 291.768 53.4952 290.154 54.372C288.498 55.2892 286.571 55.7478 284.374 55.7478C281.369 55.7478 278.865 55.039 276.862 53.6213C274.859 52.2036 273.677 50.2716 273.315 47.8252H277.071C277.489 49.2151 278.351 50.3343 279.658 51.1827C280.965 52.0311 282.537 52.455 284.374 52.4544C286.46 52.4544 288.164 51.8011 289.486 50.4944C290.807 49.1877 291.468 47.353 291.468 44.9904V40.1947C290.715 41.5297 289.601 42.6411 288.124 43.5289C286.648 44.4167 284.924 44.8606 282.95 44.8606C280.918 44.8606 279.075 44.3612 277.421 43.3624C275.767 42.3637 274.466 40.9599 273.518 39.151C272.574 37.3439 272.102 35.2867 272.102 32.9796C272.102 30.6442 272.574 28.594 273.518 26.8289C274.462 25.0639 275.764 23.6948 277.423 22.7216C279.078 21.7495 280.921 21.2631 282.953 21.2626C284.928 21.2637 286.66 21.6945 288.148 22.5551ZM290.423 28.5177C289.726 27.2415 288.787 26.2616 287.606 25.578C286.418 24.912 285.079 24.5605 283.717 24.5568C282.354 24.5532 281.014 24.8976 279.822 25.5572C278.656 26.223 277.724 27.196 277.027 28.4761C276.329 29.7561 275.981 31.2573 275.983 32.9796C275.983 34.7307 276.331 36.2527 277.027 37.5455C277.723 38.8384 278.654 39.8252 279.822 40.506C281 41.1898 282.342 41.5427 283.704 41.5272C285.072 41.5408 286.419 41.1882 287.606 40.506C288.788 39.8252 289.727 38.8384 290.423 37.5455C291.118 36.2527 291.466 34.7446 291.466 33.0212C291.466 31.2989 291.118 29.7983 290.423 28.5193V28.5177Z" fill="black"/>
<path d="M319.634 23.7453C321.359 25.4277 322.222 27.853 322.222 31.0212V44.4894H318.466V31.5631C318.466 29.2842 317.896 27.54 316.755 26.3304C315.615 25.1208 314.057 24.5163 312.081 24.5169C310.078 24.5169 308.486 25.1422 307.303 26.3929C306.12 27.6435 305.53 29.4643 305.534 31.8552V44.4894H301.736V21.6396H305.534V24.8914C306.286 23.7229 307.348 22.785 308.601 22.1815C309.894 21.5423 311.32 21.2227 312.878 21.2227C315.657 21.2232 317.909 22.0641 319.634 23.7453Z" fill="black"/>
<path d="M63.1799 51.3158C51.3984 51.3158 41.8467 41.772 41.8467 30C41.8467 18.228 51.3984 8.68414 63.1799 8.68414C66.5023 8.68139 69.7792 9.45519 72.7488 10.9437C75.7184 12.4322 78.2984 14.5942 80.2825 17.2568C75.4863 7.05951 65.1174 0 53.096 0C36.5141 0 23.0732 13.4315 23.0732 30C23.0732 46.5685 36.5141 60 53.096 60C65.1174 60 75.4863 52.9397 80.2825 42.7441C78.2983 45.4065 75.7183 47.5683 72.7487 49.0567C69.7791 50.545 66.5022 51.3187 63.1799 51.3158Z" fill="#2149A3"/>
<path d="M21.3332 9.30666C24.2448 9.29917 27.1247 9.91116 29.7812 11.1019C25.5503 16.494 23.251 23.1478 23.251 29.9995C23.251 36.8513 25.5503 43.5051 29.7812 48.8972C27.2814 50.0118 24.5853 50.6203 21.8487 50.6875C19.1121 50.7547 16.3894 50.2793 13.8378 49.2887C11.2862 48.2981 8.95642 46.812 6.98313 44.9163C5.00983 43.0206 3.43215 40.7529 2.34128 38.2443C1.25042 35.7357 0.667999 33.0359 0.627697 30.301C0.587396 27.5661 1.09001 24.8504 2.10648 22.3108C3.12296 19.7711 4.63314 17.458 6.54972 15.5051C8.4663 13.5522 10.7513 11.9982 13.2726 10.933C15.8226 9.85452 18.5642 9.30138 21.3332 9.30666V9.30666ZM21.3332 8.6841C9.55167 8.6841 0 18.2272 0 30C0 41.7727 9.55167 51.3158 21.3332 51.3158C24.6038 51.32 27.8312 50.5698 30.7641 49.1235C26.3104 43.7442 23.8737 36.9814 23.8737 30C23.8737 23.0185 26.3104 16.2557 30.7641 10.8764C27.8313 9.42987 24.6038 8.67962 21.3332 8.6841V8.6841Z" fill="#2149A3"/>
<path d="M21.3332 51.0046C15.7579 51.0046 10.411 48.7916 6.46863 44.8525C2.5263 40.9134 0.311523 35.5708 0.311523 30C0.311523 24.4292 2.5263 19.0867 6.46863 15.1475C10.411 11.2084 15.7579 8.99543 21.3332 8.99543C24.424 8.98732 27.4778 9.66741 30.2727 10.9863C25.93 16.3738 23.5621 23.0833 23.5621 30.0008C23.5621 36.9184 25.93 43.6279 30.2727 49.0154C27.4776 50.3333 24.4239 51.0128 21.3332 51.0046V51.0046Z" fill="white"/>
<path d="M21.3332 9.30666C24.2448 9.29917 27.1247 9.91116 29.7812 11.1019C25.5503 16.494 23.251 23.1478 23.251 29.9995C23.251 36.8513 25.5503 43.5051 29.7812 48.8972C27.2814 50.0118 24.5853 50.6203 21.8487 50.6875C19.1121 50.7547 16.3894 50.2793 13.8378 49.2887C11.2862 48.2981 8.95642 46.812 6.98313 44.9163C5.00983 43.0206 3.43215 40.7529 2.34128 38.2443C1.25042 35.7357 0.667999 33.0359 0.627697 30.301C0.587396 27.5661 1.09001 24.8504 2.10648 22.3108C3.12296 19.7711 4.63314 17.458 6.54972 15.5051C8.4663 13.5522 10.7513 11.9982 13.2726 10.933C15.8226 9.85452 18.5642 9.30138 21.3332 9.30666V9.30666ZM21.3332 8.6841C9.55167 8.6841 0 18.2272 0 30C0 41.7727 9.55167 51.3158 21.3332 51.3158C24.6038 51.32 27.8312 50.5698 30.7641 49.1235C26.3104 43.7442 23.8737 36.9814 23.8737 30C23.8737 23.0185 26.3104 16.2557 30.7641 10.8764C27.8313 9.42987 24.6038 8.67962 21.3332 8.6841V8.6841Z" fill="#2149A3"/>
<path d="M30.3434 11.4107C36.9389 15.156 41.0887 22.0907 41.2162 29.6429C41.2784 33.5653 40.2542 37.4285 38.2566 40.8056C36.3449 44.0463 33.6165 46.7297 30.3434 48.5884L30.2293 48.4486C28.9957 46.9213 26.7092 43.6645 25.239 39.0012C24.3296 36.1171 23.8626 33.112 23.8538 30.0882C23.8538 28.4785 24.0328 25.2001 25.2023 21.3291C25.7554 19.4934 26.4779 17.713 27.3606 16.0108C28.1583 14.4633 29.0996 12.994 30.1718 11.6221L30.3384 11.4107H30.3434ZM30.1852 10.6025C30.0586 10.7524 29.8795 10.9663 29.6712 11.2276C28.5728 12.6319 27.6095 14.1367 26.7941 15.722C25.8934 17.4591 25.1561 19.276 24.5918 21.1494C23.2698 25.5231 23.2165 29.0911 23.2157 30.0907C23.2223 33.1797 23.6998 36.2498 24.6317 39.1951C26.2777 44.4194 28.9024 47.8218 29.7312 48.8497C29.9194 49.0819 30.0785 49.2709 30.1868 49.399C37.4712 45.4873 41.9834 37.846 41.8484 29.6354C41.716 21.6829 37.2413 14.3878 30.1868 10.6059L30.1852 10.6025Z" fill="white"/>
<path d="M30.3418 11.4116L29.7771 11.0986C29.6938 11.2002 29.5947 11.33 29.4781 11.4815C29.4364 11.5356 29.2965 11.7187 29.1099 11.9725C28.9733 12.159 28.8791 12.2921 28.7034 12.5385C28.6009 12.6825 28.466 12.8714 28.3061 13.1028C28.1395 13.3658 27.9362 13.6904 27.7105 14.0658C27.5739 14.2938 27.3965 14.5893 27.1724 14.9854C27.0349 15.2293 26.845 15.568 26.616 16.0125C26.4577 16.3204 26.2661 16.71 26.0587 17.1677C25.8705 17.6355 25.6805 18.1049 25.489 18.576L25.1641 19.3675C25.04 19.7836 24.9267 20.1115 24.8492 20.3304C24.7543 20.5959 24.516 21.1419 24.516 21.3375C24.5162 21.4024 24.5052 21.4669 24.4836 21.5281C24.4689 21.5698 24.4496 21.6097 24.4261 21.6471C24.3811 21.7179 24.3178 21.8635 24.2337 22.1856C24.2398 22.3546 24.2173 22.5235 24.167 22.685C24.142 22.7641 24.1404 22.7457 24.1054 22.8473C24.0446 23.0262 24.0388 23.1153 23.963 23.4931C23.963 23.5114 23.963 23.4931 23.9221 23.6912C23.8713 23.9409 23.8388 24.1024 23.8272 24.154C23.8239 24.166 23.8214 24.1783 23.8197 24.1906C23.773 24.4153 23.7297 24.5768 23.7206 24.6109C23.6314 24.9513 23.5373 25.7337 23.534 25.7678C23.499 26.0608 23.4965 26.1573 23.4507 26.4669C23.4232 26.6534 23.3974 26.8065 23.3782 26.9089C23.3424 27.3109 23.3149 27.6479 23.2949 27.8985C23.2658 28.273 23.2491 28.4911 23.2333 28.7957C23.2191 29.0537 23.2041 29.3342 23.2 29.7045C23.2 29.9451 23.2 30.1756 23.2108 30.6367C23.2191 31.0529 23.2233 31.2651 23.2341 31.4906C23.2508 31.8435 23.2724 32.099 23.3032 32.4586C23.3266 32.7299 23.3599 33.0878 23.4065 33.5098C23.4398 33.7794 23.4848 34.1249 23.5448 34.526C23.5565 34.6043 23.6331 35.1086 23.7114 35.5439C23.7947 36.0067 23.9455 36.774 24.2228 37.8136C24.8443 40.2974 25.7925 42.688 27.0424 44.923L28.2378 46.7824C28.2911 46.8656 28.4044 47.057 28.5709 47.305C28.8458 47.7137 29.0924 48.0291 29.2573 48.2322C29.4222 48.4353 29.5813 48.6567 29.7571 48.8664L29.7838 48.8989L30.3477 48.5876L28.6542 17.1802L30.3418 11.4116Z" fill="#2149A3"/>
</g>
<defs>
<clipPath id="clip0_56_287">
<rect width="322.222" height="60" fill="white"/>
</clipPath>
</defs>
</svg>
