<svg width="323" height="60" viewBox="0 0 323 60" fill="none" xmlns="http://www.w3.org/2000/svg">
<path d="M68.4169 51.3555C56.5928 51.3555 47.0076 41.7594 47.0076 29.9219C47.0076 18.0844 56.5928 8.4884 68.4169 8.4884C72.2148 8.48705 75.9447 9.49741 79.2237 11.4158C82.5028 13.3343 85.2129 16.0917 87.0759 19.405C82.8234 8.06765 71.8964 0 59.0866 0C42.5796 0 29.1985 13.3962 29.1985 29.9219C29.1985 46.4476 42.5796 59.8439 59.0866 59.8439C71.8964 59.8439 82.8234 51.7763 87.0759 40.4389C85.2129 43.7522 82.5028 46.5096 79.2237 48.4281C75.9447 50.3465 72.2148 51.3569 68.4169 51.3555V51.3555Z" fill="#2149A3"/>
<path d="M23.4783 7.28697C27.9009 7.27948 32.2278 8.57653 35.9185 11.0162C31.572 16.3554 29.1984 23.0324 29.1984 29.9202C29.1984 36.8081 31.572 43.485 35.9185 48.8242C32.228 51.2645 27.9011 52.5622 23.4783 52.5552C10.9883 52.5552 0.8681 42.4167 0.8681 29.9202C0.8681 17.4237 10.9909 7.28523 23.4783 7.28523V7.28697ZM23.4783 6.41248C19.8183 6.41292 16.2091 7.26992 12.9388 8.915C9.66843 10.5601 6.8275 12.9477 4.64269 15.8873C2.45788 18.827 0.989702 22.2373 0.355363 25.8459C-0.278976 29.4546 -0.0619107 33.1617 0.989207 36.6714C2.04032 40.1812 3.89641 43.3964 6.40931 46.0604C8.92221 48.7244 12.0223 50.7634 15.4622 52.0147C18.9022 53.266 22.5867 53.6949 26.2216 53.2673C29.8566 52.8397 33.3414 51.5673 36.3978 49.5517L37.2021 49.0203L36.5936 48.2751C32.3742 43.0916 30.07 36.6095 30.07 29.9228C30.07 23.236 32.3742 16.7539 36.5936 11.5704L37.2029 10.8227L36.3987 10.2913C32.566 7.75679 28.0725 6.40861 23.4792 6.41503L23.4783 6.41248Z" fill="#2149A3"/>
<path d="M23.4782 7.28704C35.9682 7.28704 46.0876 17.4212 46.0876 29.9219C46.0876 42.4226 35.9648 52.5569 23.4782 52.5569C10.9916 52.5569 0.868003 42.4184 0.868003 29.9219C0.868003 17.4254 10.9908 7.28704 23.4782 7.28704ZM23.4782 6.41429C17.6752 6.42146 12.0818 8.58608 7.78288 12.4884C3.48395 16.3907 0.785988 21.7524 0.212361 27.5335C-0.361265 33.3146 1.23033 39.1029 4.6784 43.7756C8.12647 48.4483 13.1852 51.6724 18.8734 52.8223C24.5615 53.9723 30.4735 52.9662 35.4626 49.9992C40.4517 47.0322 44.1622 42.3158 45.8744 36.7649C47.5865 31.214 47.1782 25.2242 44.7288 19.9576C42.2793 14.691 37.9633 10.523 32.6178 8.26203C29.7265 7.03693 26.6179 6.40847 23.4782 6.41429V6.41429Z" fill="#2149A3"/>
<path d="M36.4846 49.501L35.9724 48.7955C38.5792 46.8963 43.2385 42.7767 45.1525 36.5306C46.4814 32.2304 46.4814 27.6287 45.1525 23.3286C43.2385 17.0766 38.5775 12.9535 35.969 11.0492L36.4821 10.3454C39.1776 12.3123 43.993 16.5823 45.9854 23.0726C47.3661 27.5394 47.3661 32.3197 45.9854 36.7865C43.9963 43.2743 39.1792 47.5367 36.4846 49.501Z" fill="white"/>
<path d="M36.484 10.3438L35.9177 11.018L35.9785 11.0577L36.484 10.3438Z" fill="white"/>
<path d="M35.9185 48.8259L36.483 49.5018L35.9767 48.7964C35.9547 48.8048 35.9362 48.8149 35.9185 48.8259Z" fill="white"/>
<path d="M95.876 45.2837V14.4266H100.776V40.9824H112.557V45.2837H95.876Z" fill="#2149A3"/>
<path d="M126.177 45.8821C122.886 45.8821 120.523 45.2089 119.089 43.8624C117.655 42.5034 116.939 40.2655 116.939 37.1486V26.1336H121.595V36.1014C121.595 38.2582 121.938 39.7917 122.624 40.7019C123.322 41.612 124.506 42.0671 126.177 42.0671C127.848 42.0671 129.026 41.612 129.711 40.7019C130.41 39.7917 130.759 38.2582 130.759 36.1014V26.1336H135.415V37.1486C135.415 40.2655 134.698 42.5034 133.265 43.8624C131.831 45.2089 129.468 45.8821 126.177 45.8821Z" fill="#2149A3"/>
<path d="M142.206 45.2837V26.1336H146.863V28.4339C147.524 27.5861 148.403 26.8941 149.5 26.358C150.609 25.8095 151.875 25.5352 153.296 25.5352C154.767 25.5352 156.051 25.8531 157.149 26.4889C158.258 27.1123 159.118 27.9975 159.729 29.1445C160.34 30.2915 160.646 31.6505 160.646 33.2214V45.2837H155.989V34.1938C155.989 32.598 155.59 31.37 154.792 30.5097C154.007 29.637 152.916 29.2006 151.519 29.2006C150.559 29.2006 149.73 29.4001 149.032 29.799C148.334 30.1855 147.798 30.7092 147.424 31.37C147.05 32.0183 146.863 32.7414 146.863 33.5393V45.2837H142.206Z" fill="#2149A3"/>
<path d="M175.579 45.8821C173.808 45.8821 172.2 45.4457 170.754 44.573C169.32 43.6878 168.179 42.4785 167.332 40.945C166.496 39.4115 166.079 37.6598 166.079 35.6899C166.079 33.745 166.484 32.012 167.294 30.491C168.117 28.9575 169.245 27.7481 170.679 26.863C172.113 25.9778 173.746 25.5352 175.579 25.5352C177.075 25.5352 178.453 25.8469 179.712 26.4702C180.971 27.0936 181.968 27.9601 182.704 29.0697V26.1336H187.361V45.2837H182.704V42.2167C181.856 43.3761 180.815 44.28 179.581 44.9283C178.359 45.5642 177.025 45.8821 175.579 45.8821ZM176.907 41.8987C178.066 41.8987 179.088 41.6369 179.974 41.1133C180.859 40.5772 181.557 39.8416 182.068 38.9065C182.579 37.9715 182.835 36.9055 182.835 35.7086C182.835 34.4993 182.579 33.4333 182.068 32.5107C181.557 31.5757 180.859 30.8463 179.974 30.3227C179.088 29.7866 178.066 29.5185 176.907 29.5185C175.76 29.5185 174.737 29.7866 173.84 30.3227C172.942 30.8463 172.238 31.5757 171.726 32.5107C171.215 33.4458 170.96 34.5118 170.96 35.7086C170.96 36.9055 171.215 37.9715 171.726 38.9065C172.238 39.8416 172.942 40.5772 173.84 41.1133C174.737 41.6369 175.76 41.8987 176.907 41.8987Z" fill="#2149A3"/>
<path d="M196.006 45.2837V14.4266H202.962C205.144 14.4266 207.176 14.8194 209.059 15.6048C210.954 16.3903 212.606 17.4874 214.015 18.8962C215.424 20.2926 216.527 21.9258 217.325 23.796C218.123 25.6661 218.522 27.692 218.522 29.8739C218.522 32.0432 218.129 34.0629 217.344 35.9331C216.558 37.8032 215.455 39.4427 214.034 40.8515C212.625 42.2478 210.973 43.3387 209.078 44.1242C207.195 44.8972 205.157 45.2837 202.962 45.2837H196.006ZM198.848 42.7403H202.701C204.521 42.7403 206.204 42.4161 207.75 41.7678C209.308 41.1071 210.667 40.1969 211.827 39.0375C212.999 37.8655 213.909 36.5003 214.557 34.9419C215.206 33.371 215.53 31.6754 215.53 29.8552C215.53 28.0349 215.206 26.3456 214.557 24.7871C213.909 23.2287 212.999 21.8635 211.827 20.6915C210.667 19.5196 209.308 18.6095 207.75 17.9612C206.192 17.3004 204.508 16.97 202.701 16.97H198.848V42.7403Z" fill="black"/>
<path d="M234.617 45.8821C232.61 45.8821 230.815 45.4395 229.232 44.5543C227.661 43.6691 226.426 42.466 225.529 40.945C224.631 39.4115 224.182 37.691 224.182 35.7834C224.182 34.3497 224.438 33.0157 224.949 31.7814C225.473 30.5346 226.196 29.4437 227.118 28.5087C228.041 27.5736 229.113 26.8443 230.335 26.3206C231.557 25.797 232.86 25.5352 234.243 25.5352C236.139 25.5352 237.822 25.9528 239.293 26.7882C240.776 27.611 241.948 28.7518 242.809 30.2105C243.681 31.6692 244.143 33.3523 244.193 35.2598C244.193 35.4094 244.186 35.5341 244.174 35.6338C244.174 35.7211 244.161 35.8333 244.136 35.9705H226.894C226.894 37.4666 227.231 38.7881 227.904 39.9351C228.577 41.0821 229.5 41.986 230.672 42.6468C231.856 43.2951 233.209 43.6193 234.73 43.6193C236.176 43.6193 237.473 43.32 238.62 42.7216C239.779 42.1107 240.745 41.238 241.518 40.1034L243.538 41.1881C242.628 42.6717 241.387 43.825 239.816 44.6478C238.258 45.4707 236.525 45.8821 234.617 45.8821ZM227.043 33.9133H241.462C241.3 32.7164 240.882 31.6629 240.209 30.7528C239.536 29.8302 238.682 29.1071 237.647 28.5835C236.625 28.0598 235.503 27.798 234.281 27.798C233.022 27.798 231.875 28.0598 230.84 28.5835C229.805 29.0946 228.951 29.8115 228.278 30.7341C227.617 31.6442 227.206 32.704 227.043 33.9133Z" fill="black"/>
<path d="M255.453 45.8821C253.87 45.8821 252.473 45.5019 251.264 44.7413C250.055 43.9683 249.113 42.8774 248.44 41.4686L249.899 39.8977C250.497 41.1195 251.276 42.0733 252.236 42.759C253.196 43.4322 254.262 43.7689 255.434 43.7689C256.22 43.7689 256.937 43.6068 257.585 43.2826C258.246 42.9585 258.769 42.4972 259.156 41.8987C259.555 41.2878 259.754 40.5647 259.754 39.7294C259.754 38.9689 259.567 38.3704 259.193 37.9341C258.832 37.4977 258.296 37.1237 257.585 36.812C256.887 36.4879 256.014 36.1263 254.967 35.7273C254.156 35.4032 253.371 35.0354 252.61 34.624C251.85 34.2125 251.22 33.6951 250.722 33.0718C250.235 32.4359 249.992 31.6318 249.992 30.6593C249.992 29.6744 250.254 28.8016 250.778 28.0411C251.301 27.2681 252.024 26.6635 252.947 26.2271C253.87 25.7783 254.917 25.5539 256.089 25.5539C257.161 25.5539 258.165 25.7845 259.1 26.2458C260.047 26.7071 260.895 27.3617 261.643 28.2094L260.39 29.799C259.243 28.2905 257.816 27.5362 256.108 27.5362C255.06 27.5362 254.206 27.8105 253.545 28.3591C252.897 28.9076 252.573 29.6245 252.573 30.5097C252.573 31.1455 252.779 31.6754 253.19 32.0993C253.602 32.5232 254.138 32.8848 254.798 33.184C255.472 33.4832 256.195 33.7824 256.968 34.0816C258.09 34.5055 259.062 34.9294 259.885 35.3533C260.721 35.7772 261.369 36.3195 261.83 36.9803C262.291 37.6286 262.522 38.5138 262.522 39.6359C262.522 40.92 262.223 42.0297 261.624 42.9647C261.026 43.8998 260.191 44.6229 259.118 45.1341C258.059 45.6328 256.837 45.8821 255.453 45.8821Z" fill="black"/>
<path d="M268.978 45.2837V26.1336H271.709V45.2837H268.978ZM270.362 22.2999C270.026 22.2999 269.72 22.2188 269.446 22.0567C269.184 21.8947 268.972 21.6765 268.81 21.4022C268.648 21.1279 268.567 20.8287 268.567 20.5045C268.567 20.1804 268.648 19.8874 268.81 19.6256C268.972 19.3513 269.184 19.1331 269.446 18.971C269.72 18.809 270.026 18.7279 270.362 18.7279C270.686 18.7279 270.979 18.809 271.241 18.971C271.503 19.1331 271.715 19.3451 271.877 19.6069C272.052 19.8687 272.139 20.1679 272.139 20.5045C272.139 20.8287 272.052 21.1279 271.877 21.4022C271.715 21.6765 271.503 21.8947 271.241 22.0567C270.979 22.2188 270.686 22.2999 270.362 22.2999Z" fill="black"/>
<path d="M288.225 55.5693C285.806 55.5693 283.762 55.0956 282.091 54.1481C280.421 53.2005 279.18 51.8166 278.37 49.9964L280.67 48.9304C281.256 50.252 282.228 51.2992 283.587 52.0722C284.946 52.8577 286.492 53.2504 288.225 53.2504C289.684 53.2504 290.987 52.9574 292.134 52.3714C293.293 51.7979 294.203 50.9626 294.864 49.8655C295.537 48.7683 295.874 47.453 295.874 45.9195V41.2442C295.076 42.6904 293.979 43.825 292.583 44.6478C291.199 45.4707 289.653 45.8821 287.945 45.8821C286.162 45.8821 284.547 45.4457 283.101 44.573C281.667 43.7003 280.526 42.4972 279.679 40.9637C278.843 39.4302 278.426 37.6785 278.426 35.7086C278.426 33.7512 278.843 32.012 279.679 30.491C280.514 28.9575 281.649 27.7481 283.082 26.863C284.529 25.9778 286.168 25.5352 288.001 25.5352C289.696 25.5352 291.236 25.9404 292.62 26.7507C294.016 27.5611 295.101 28.6832 295.874 30.117V26.1336H298.604V45.8073C298.604 47.9268 298.187 49.7096 297.351 51.1559C296.516 52.6145 295.319 53.7117 293.761 54.4473C292.215 55.1953 290.37 55.5693 288.225 55.5693ZM288.599 43.5071C290.045 43.5071 291.323 43.1767 292.433 42.5159C293.543 41.8426 294.415 40.92 295.051 39.7481C295.687 38.5637 296.005 37.2234 296.005 35.7273C296.005 34.2063 295.687 32.8598 295.051 31.6879C294.415 30.5035 293.543 29.5809 292.433 28.9201C291.323 28.2468 290.052 27.9102 288.618 27.9102C287.184 27.9102 285.912 28.2468 284.803 28.9201C283.693 29.5809 282.821 30.5035 282.185 31.6879C281.549 32.8598 281.231 34.2063 281.231 35.7273C281.231 37.2234 281.543 38.5637 282.166 39.7481C282.802 40.92 283.675 41.8426 284.784 42.5159C285.906 43.1767 287.178 43.5071 288.599 43.5071Z" fill="black"/>
<path d="M306.655 45.2837V26.1336H309.386V28.7518C309.909 27.8541 310.72 27.0936 311.817 26.4702C312.914 25.8469 314.254 25.5352 315.838 25.5352C317.321 25.5352 318.599 25.8406 319.671 26.4515C320.743 27.0624 321.566 27.9539 322.14 29.1258C322.713 30.2853 323 31.6879 323 33.3336V45.2837H320.27V33.8572C320.27 31.8749 319.808 30.3663 318.886 29.3315C317.963 28.2842 316.66 27.7606 314.977 27.7606C313.805 27.7606 312.802 27.9975 311.966 28.4713C311.144 28.9326 310.508 29.5497 310.059 30.3227C309.61 31.0832 309.386 31.9123 309.386 32.8099V45.2837H306.655Z" fill="black"/>
</svg>
